<svg xmlns="http://www.w3.org/2000/svg" width="24" height="21" viewBox="0 0 24 21"><defs><style>.a{fill:#90a4ae;}.b{fill:#7d8f97;}.c{fill:#607d8b;}.d{fill:#546d79;}.e{fill:#546e7a;}.f{fill:#49606a;}</style></defs><g transform="translate(0 -2)"><path class="a" d="M5,20H3a1,1,0,0,1,0-2H5a1,1,0,0,1,0,2Z"/><path class="a" d="M21,20H19.25a1,1,0,0,1,0-2H21a1,1,0,0,1,0,2Z"/><path class="a" d="M13.75,20h-3.5a1,1,0,0,1,0-2h3.5a1,1,0,0,1,0,2Z"/><path class="b" d="M6,19H2a1,1,0,0,0,1,1H5A1,1,0,0,0,6,19Z"/><path class="b" d="M22,19H18.25a1,1,0,0,0,1,1H21A1,1,0,0,0,22,19Z"/><path class="b" d="M14.75,19H9.25a1,1,0,0,0,1,1h3.5A1,1,0,0,0,14.75,19Z"/><path class="c" d="M24,11c0,2.209-5.373,4-12,4S0,13.209,0,11,5.373,7,12,7,24,8.791,24,11Z"/><path class="a" d="M11.936,11a10.827,10.827,0,0,1-3.931-.744A1.679,1.679,0,0,1,7,8.667V4.755A2.755,2.755,0,0,1,9.75,2h1.462A1.541,1.541,0,0,1,12.75,3.541l.31-.089A2.75,2.75,0,0,1,17,5.936V8.667a1.656,1.656,0,0,1-1.021,1.6A11.869,11.869,0,0,1,11.936,11Z"/><path class="d" d="M7,7.363C2.869,7.995,0,9.386,0,11c0,2.209,5.373,4,12,4V11h-.064a10.827,10.827,0,0,1-3.931-.744A1.679,1.679,0,0,1,7,8.667Z"/><path class="b" d="M11.212,2H9.75A2.755,2.755,0,0,0,7,4.755V8.666a1.678,1.678,0,0,0,1.005,1.589A10.8,10.8,0,0,0,11.936,11H12V2.218A1.531,1.531,0,0,0,11.212,2Z"/><path class="e" d="M8.42,23A2.623,2.623,0,0,1,8,22.966l-1.833-.292A2.521,2.521,0,0,1,4,20.2V18.177a.749.749,0,0,1,.522-.714,9.878,9.878,0,0,1,5.957,0,.75.75,0,0,1,.521.714v2.317a2.472,2.472,0,0,1-.877,1.881A2.623,2.623,0,0,1,8.42,23Z"/><path class="f" d="M7.5,17a9.794,9.794,0,0,0-2.978.46A.749.749,0,0,0,4,18.177V20.2a2.522,2.522,0,0,0,2.164,2.473l1.336.213Z"/><path class="e" d="M15.58,23a2.621,2.621,0,0,1-1.7-.625A2.472,2.472,0,0,1,13,20.494V18.177a.75.75,0,0,1,.521-.714,9.878,9.878,0,0,1,5.957,0,.749.749,0,0,1,.522.714V20.2a2.522,2.522,0,0,1-2.164,2.473L16,22.966A2.623,2.623,0,0,1,15.58,23Zm.305-.774h.01Z"/><path class="f" d="M16.5,17a9.805,9.805,0,0,0-2.979.46.75.75,0,0,0-.521.714v2.317a2.472,2.472,0,0,0,.877,1.881A2.635,2.635,0,0,0,16,22.966l.5-.079Z"/></g></svg>