<svg xmlns="http://www.w3.org/2000/svg" xmlns:xlink="http://www.w3.org/1999/xlink" width="16.969" height="28.764" viewBox="0 0 16.969 28.764"><defs><style>.aa{fill:url(#a);}.bb{fill:#00b0ff;}.cc{fill:url(#b);}.dd{fill:#ff00e5;}</style><linearGradient id="a" y1="0.5" x2="1" y2="0.5" gradientUnits="objectBoundingBox"><stop offset="0" stop-color="#2057ff"/><stop offset="1" stop-color="#00b0ff"/></linearGradient><linearGradient id="b" x1="1" y1="0.5" x2="0" y2="0.5" gradientUnits="objectBoundingBox"><stop offset="0" stop-color="#b500ac"/><stop offset="1" stop-color="#ff00e5"/></linearGradient></defs><g transform="translate(-859.001 -370)"><g transform="translate(859.001 370)"><g transform="translate(0)"><g transform="translate(5.45 9.416)"><path class="aa" d="M106.692,619.779l1.627,1.641,1.609-1.6a2.338,2.338,0,0,0,0-3.306l0,0-3.269-3.276A4.657,4.657,0,0,0,106.692,619.779Z" transform="translate(-102.04 -602.072)"/><path class="bb" d="M78.712,532.768,82,536.06a4.657,4.657,0,0,1-.033-6.547c.012-.012.022-.025.033-.037l3.669-3.669,2.511-2.507a2.341,2.341,0,0,0,0-3.311l-1.639-1.636-4.236,4.236L78.7,526.2A4.655,4.655,0,0,0,78.712,532.768Z" transform="translate(-77.351 -518.353)"/></g><path class="cc" d="M59.962,439.945,58.34,438.3l-1.613,1.606a2.338,2.338,0,0,0,0,3.306l0,0L60,446.493a4.657,4.657,0,0,0-.033-6.547Z" transform="translate(-53.098 -438.301)"/><path class="dd" d="M41.179,455.572l-3.292-3.292a4.657,4.657,0,0,1,.033,6.547c-.012.012-.022.025-.033.037l-3.669,3.669-2.509,2.506a2.341,2.341,0,0,0,0,3.311l1.639,1.635,4.235-4.235,3.606-3.608A4.655,4.655,0,0,0,41.179,455.572Z" transform="translate(-31.022 -450.636)"/></g></g></g></svg>