<svg xmlns="http://www.w3.org/2000/svg" width="182" height="182" viewBox="0 0 182 182"><defs><style>.a{fill:#60daa8;}.b{fill:#00ce8e;}.c{fill:#fff;}</style></defs><g transform="translate(0.001)"><path class="a" d="M182,91A91,91,0,1,1,91,0,91,91,0,0,1,182,91Zm0,0" transform="translate(0)"/><path class="b" d="M84.437,161.962c7.509-7.116,10.839-16.947,10.839-16.947l-12.1-10.275s-14.871-28.569-14.78-28.5c-33.2-38.611-8.137-90.961-7.854-91.551A91.022,91.022,0,0,0,80.888,190.913a22.749,22.749,0,0,1,3.549-28.951Zm0,0" transform="translate(0 -9.469)"/><path class="c" d="M138.549,237.159a13.2,13.2,0,0,1-8.088-2.76l-42.9-33.09a13.253,13.253,0,0,1,16.189-20.988l33.189,25.6,45.791-50.679A13.253,13.253,0,0,1,202.4,173.015l-54.01,59.776a13.233,13.233,0,0,1-9.839,4.368Zm0,0" transform="translate(-53.112 -97.245)"/></g></svg>