<?xml version="1.0" standalone="no"?>
<!DOCTYPE svg PUBLIC "-//W3C//DTD SVG 20010904//EN"
 "http://www.w3.org/TR/2001/REC-SVG-20010904/DTD/svg10.dtd">
<svg version="1.0" xmlns="http://www.w3.org/2000/svg"
 width="64.000000pt" height="64.000000pt" viewBox="0 0 64.000000 64.000000"
 preserveAspectRatio="xMidYMid meet">

<g transform="translate(0.000000,64.000000) scale(0.100000,-0.100000)"
fill="#000000" stroke="none">
<path d="M230 557 c-49 -16 -133 -102 -148 -153 -30 -101 -9 -188 63 -259 71
-72 158 -93 259 -63 55 16 138 99 154 154 30 101 9 188 -63 259 -71 71 -166
93 -265 62z m157 -22 c68 -20 136 -93 153 -165 19 -80 0 -142 -64 -206 -97
-97 -213 -97 -312 0 -43 43 -54 60 -64 107 -11 47 -10 64 4 111 20 70 79 132
145 152 60 19 77 19 138 1z"/>
<path d="M344 340 c-26 -38 -50 -70 -54 -70 -4 0 -15 9 -25 20 -21 23 -35 26
-35 7 0 -15 51 -67 66 -67 10 0 114 154 114 170 0 26 -24 4 -66 -60z"/>
</g>
</svg>
