<svg width="51" height="51" viewBox="0 0 51 51" fill="none" xmlns="http://www.w3.org/2000/svg">
<rect width="51" height="51" rx="25.5" fill="#EAEBF3"/>
<path d="M19.1078 32.625C18.9201 32.625 18.7324 32.5536 18.5897 32.4099C18.3034 32.1236 18.3034 31.6594 18.5897 31.3731L31.3735 18.5897C31.6598 18.3034 32.124 18.3034 32.4103 18.5897C32.6966 18.876 32.6966 19.3402 32.4103 19.6267L19.6267 32.4099C19.483 32.5527 19.2953 32.625 19.1078 32.625Z" fill="black" stroke="black"/>
<path d="M31.8924 32.625C31.7047 32.625 31.5172 32.5536 31.3744 32.4099L18.5897 19.6267C18.3034 19.3402 18.3034 18.876 18.5897 18.5897C18.876 18.3034 19.3402 18.3034 19.6267 18.5897L32.4103 31.3731C32.6966 31.6594 32.6966 32.1236 32.4103 32.4099C32.2666 32.5527 32.079 32.625 31.8924 32.625Z" fill="black" stroke="black"/>
</svg>
