<svg width="10" height="4" viewBox="0 0 10 4" fill="none" xmlns="http://www.w3.org/2000/svg">
<path d="M1.50004 0.833008C0.85582 0.833008 0.333008 1.35582 0.333008 2.00004C0.333008 2.64426 0.85582 3.16707 1.50004 3.16707C2.14426 3.16707 2.66707 2.64426 2.66707 2.00004C2.66707 1.35582 2.14426 0.833008 1.50004 0.833008ZM5.00004 0.833008C4.35582 0.833008 3.83301 1.35582 3.83301 2.00004C3.83301 2.64426 4.35582 3.16707 5.00004 3.16707C5.64426 3.16707 6.16707 2.64426 6.16707 2.00004C6.16707 1.35582 5.64426 0.833008 5.00004 0.833008ZM8.50004 0.833008C7.85582 0.833008 7.33301 1.35582 7.33301 2.00004C7.33301 2.64426 7.85582 3.16707 8.50004 3.16707C9.14426 3.16707 9.66707 2.64426 9.66707 2.00004C9.66707 1.35582 9.14426 0.833008 8.50004 0.833008Z" fill="#1E1E1F"/>
</svg>
