<svg width="9" height="10" viewBox="0 0 9 10" fill="none" xmlns="http://www.w3.org/2000/svg">
<path fill-rule="evenodd" clip-rule="evenodd" d="M7.39477 0.345119C7.42096 0.365711 8.29736 1.0521 8.29736 1.0521C8.61586 1.24323 8.86468 1.58485 8.95898 1.98929C9.05274 2.38951 8.98464 2.8024 8.7662 3.1514C8.76474 3.15373 8.7633 3.15603 8.75824 3.16287L8.75429 3.16816C8.71883 3.21526 8.5647 3.4117 7.78676 4.39408C7.77953 4.40696 7.77134 4.41901 7.76241 4.43073C7.74929 4.448 7.73501 4.46388 7.71977 4.47833C7.66671 4.54567 7.61066 4.61643 7.55174 4.69082L7.43234 4.84154C7.18598 5.15251 6.89375 5.52127 6.54707 5.95865L6.36915 6.1831C5.69985 7.02745 4.84267 8.10852 3.7446 9.49313C3.50416 9.79514 3.14375 9.97096 2.75663 9.97571L0.850348 10H0.845109C0.663334 10 0.505132 9.87434 0.462701 9.69535L0.0336699 7.86268C-0.0548603 7.48306 0.0331461 7.09129 0.27464 6.78716L5.20928 0.566348C5.21137 0.564236 5.21295 0.561596 5.21504 0.559484C5.75618 -0.0925875 6.73472 -0.188682 7.39477 0.345119ZM4.6591 2.5275L0.888065 7.28189C0.798487 7.39488 0.765484 7.54061 0.798487 7.68053L1.15523 9.20379L2.7472 9.18372C2.89859 9.18214 3.03846 9.11403 3.13118 8.99787C3.60866 8.39574 4.20876 7.63894 4.82575 6.86075L5.04404 6.58543L5.26269 6.30963C5.84132 5.57977 6.41297 4.85863 6.89127 4.25502L4.6591 2.5275ZM5.82009 1.06477L5.14994 1.90869L7.38194 3.63572C7.81155 3.09335 8.09417 2.73613 8.1203 2.70208C8.20621 2.56163 8.23973 2.36311 8.19468 2.17197C8.14859 1.97609 8.02758 1.80977 7.85314 1.70364C7.81594 1.67777 6.93326 0.987158 6.90602 0.965511C6.5739 0.69729 6.08934 0.743754 5.82009 1.06477Z" fill="#646D76"/>
</svg>
