<svg width="68" height="48" viewBox="0 0 68 48" fill="none" xmlns="http://www.w3.org/2000/svg">
<path d="M62.5 0.25H5.5C4.24022 0.25 3.03204 0.750445 2.14124 1.64124C1.25044 2.53204 0.75 3.74022 0.75 5V43C0.75 44.2598 1.25044 45.468 2.14124 46.3588C3.03204 47.2496 4.24022 47.75 5.5 47.75H62.5C63.7598 47.75 64.968 47.2496 65.8588 46.3588C66.7496 45.468 67.25 44.2598 67.25 43V5C67.25 3.74022 66.7496 2.53204 65.8588 1.64124C64.968 0.750445 63.7598 0.25 62.5 0.25V0.25ZM57.275 5L34 21.1025L10.725 5H57.275ZM5.5 43V7.16125L32.6463 25.9475C33.0438 26.2233 33.5161 26.3711 34 26.3711C34.4839 26.3711 34.9562 26.2233 35.3537 25.9475L62.5 7.16125V43H5.5Z" fill="black"/>
</svg>
