<svg xmlns="http://www.w3.org/2000/svg" width="107.956" height="107.972" viewBox="0 0 107.956 107.972"><defs><style>.a{fill:#b3b7d2;}.b{fill:#2b5cff;}</style></defs><g transform="translate(-0.039 0)"><g transform="translate(39.934 38.05)"><path class="a" d="M192.818,181.051a2.107,2.107,0,1,0,.618,1.493A2.124,2.124,0,0,0,192.818,181.051Z" transform="translate(-189.219 -180.433)"/></g><g transform="translate(52.657 38.05)"><path class="a" d="M253.149,181.05a2.107,2.107,0,1,0,.618,1.493A2.124,2.124,0,0,0,253.149,181.05Z" transform="translate(-249.55 -180.432)"/></g><g transform="translate(43.9 44.456)"><path class="a" d="M216.357,211.427a2.109,2.109,0,0,0-2.982,0,1.238,1.238,0,0,1-1.749,0,2.109,2.109,0,0,0-2.982,2.982,5.461,5.461,0,0,0,7.713,0A2.109,2.109,0,0,0,216.357,211.427Z" transform="translate(-208.026 -210.81)"/></g><g transform="translate(71.874 98.437)"><path class="b" d="M344.317,467.442l-.064-.061a2.108,2.108,0,1,0-2.933,3.03l.071.068a2.109,2.109,0,0,0,2.926-3.037Z" transform="translate(-340.679 -466.788)"/></g><g transform="translate(0.039 0)"><g transform="translate(0 0)"><path class="a" d="M92.866,66.967a48.373,48.373,0,0,0-3.8-44.593,2.108,2.108,0,1,0-3.556,2.267A44.368,44.368,0,0,1,88.6,66.208q-.75-.054-1.514-.055a20.78,20.78,0,0,0-9.737,2.41A15.859,15.859,0,0,0,66.29,60.607l-6.767-1.251a3.6,3.6,0,0,1-2.946-3.541v-.336a16.994,16.994,0,0,0,8.78-14.864v-9.9a16.983,16.983,0,0,0-33.965,0v9.9a16.994,16.994,0,0,0,8.777,14.862v.338a3.6,3.6,0,0,1-2.946,3.541l-6.764,1.251A15.954,15.954,0,0,0,17.406,76.294v3.4c-.081-.08-.162-.158-.243-.238A44.074,44.074,0,0,1,70.658,10.3,2.109,2.109,0,1,0,72.8,6.664a48.281,48.281,0,1,0-5.808,86.177c.142.494.3.984.477,1.468a2.109,2.109,0,0,0,3.956-1.462,16.671,16.671,0,1,1,10.757,10.176,2.108,2.108,0,0,0-1.237,4.031A20.913,20.913,0,1,0,92.866,66.967ZM48.374,17.951A12.781,12.781,0,0,1,61.14,30.612l-6.773-3.979a2.108,2.108,0,0,0-2.684.464,14.2,14.2,0,0,1-10.909,5.091H35.609V30.716h0A12.78,12.78,0,0,1,48.374,17.951ZM35.609,40.614V36.405h5.164a18.4,18.4,0,0,0,12.92-5.277L61.14,35.5v5.111a12.766,12.766,0,1,1-25.531,0Zm9.209,16.6a16.914,16.914,0,0,0,7.19-.018l-3.6,3.6Zm6.147,23.86L48.4,83.993l-2.562-2.914L48.4,71.344Zm15.211,5.984c0,.507.023,1.011.059,1.512a44.154,44.154,0,0,1-44.612-5.219V76.294a11.738,11.738,0,0,1,9.6-11.541L37.989,63.5a7.8,7.8,0,0,0,4.529-2.619L45.9,64.269,41.479,81.091a2.108,2.108,0,0,0,.456,1.929l4.887,5.559a2.109,2.109,0,0,0,3.168,0l4.885-5.559a2.109,2.109,0,0,0,.455-1.929L50.9,64.271l3.354-3.354a7.8,7.8,0,0,0,4.5,2.585l6.767,1.251a11.666,11.666,0,0,1,8.293,6.161A20.877,20.877,0,0,0,66.176,87.063Z" transform="translate(-0.039 0)"/></g></g><g transform="translate(77.562 77.539)"><path class="b" d="M384.589,375.1h-5.306V369.8a2.108,2.108,0,1,0-4.217,0V375.1h-5.306a2.108,2.108,0,1,0,0,4.217h5.306v5.306a2.108,2.108,0,0,0,4.217,0v-5.306h5.306a2.108,2.108,0,1,0,0-4.217Z" transform="translate(-367.651 -367.69)"/></g><g transform="translate(78.867 13.54)"><path class="b" d="M377.521,64.906l-.082-.082a2.109,2.109,0,0,0-2.982,2.982l.076.077a2.109,2.109,0,0,0,2.988-2.976Z" transform="translate(-373.839 -64.206)"/></g></g></svg>